<?xml version="1.0" encoding="utf-8"?>
<!-- Generator: Adobe Illustrator 23.0.5, SVG Export Plug-In . SVG Version: 6.00 Build 0)  -->
<svg version="1.1" id="Capa_1" xmlns="http://www.w3.org/2000/svg" xmlns:xlink="http://www.w3.org/1999/xlink" x="0px" y="0px"
	 viewBox="0 0 96 96" style="enable-background:new 0 0 96 96;" xml:space="preserve">
<style type="text/css">
	.st0{fill:url(#SVGID_1_);}
	.st1{opacity:0.7;}
	.st2{fill:url(#SVGID_2_);}
	.st3{fill:url(#SVGID_3_);}
	.st4{fill:url(#SVGID_4_);}
	.st5{fill:url(#SVGID_5_);}
</style>
<g>
	<g>
		<g>
			<g>
				<linearGradient id="SVGID_1_" gradientUnits="userSpaceOnUse" x1="48" y1="100.5811" x2="48" y2="5.6305">
					<stop  offset="0" style="stop-color:#BBD532"/>
					<stop  offset="0.1033" style="stop-color:#C6C92E"/>
					<stop  offset="0.3192" style="stop-color:#DFAB26"/>
					<stop  offset="0.5228" style="stop-color:#F6871F"/>
					<stop  offset="0.7089" style="stop-color:#E77360"/>
					<stop  offset="1" style="stop-color:#D14B9B"/>
				</linearGradient>
				<path class="st0" d="M48,87.97C25.96,87.97,8.03,70.04,8.03,48C8.03,25.96,25.96,8.03,48,8.03c22.04,0,39.97,17.93,39.97,39.97
					C87.97,70.04,70.04,87.97,48,87.97z M48,15.03c-18.18,0-32.97,14.79-32.97,32.97c0,18.18,14.79,32.97,32.97,32.97
					c18.18,0,32.97-14.79,32.97-32.97C80.97,29.82,66.18,15.03,48,15.03z"/>
			</g>
		</g>
		<g class="st1">
			<g>
				<linearGradient id="SVGID_2_" gradientUnits="userSpaceOnUse" x1="38.9821" y1="48.3845" x2="57.4424" y2="48.3845">
					<stop  offset="0" style="stop-color:#BBD532"/>
					<stop  offset="0.1033" style="stop-color:#C6C92E"/>
					<stop  offset="0.3192" style="stop-color:#DFAB26"/>
					<stop  offset="0.5228" style="stop-color:#F6871F"/>
					<stop  offset="0.7089" style="stop-color:#E77360"/>
					<stop  offset="1" style="stop-color:#D14B9B"/>
				</linearGradient>
				<path class="st2" d="M55.26,51.14c-0.78-0.47-1.8-0.99-2.72-0.61c-0.71,0.29-1.16,1.4-1.62,1.96c-0.24,0.29-0.52,0.34-0.88,0.19
					c-2.66-1.06-4.69-2.83-6.16-5.28c-0.25-0.38-0.2-0.68,0.1-1.03c0.44-0.52,1-1.11,1.12-1.82c0.12-0.7-0.21-1.52-0.5-2.15
					c-0.37-0.8-0.79-1.94-1.59-2.39c-0.74-0.42-1.71-0.18-2.36,0.35c-1.13,0.92-1.68,2.37-1.66,3.8c0,0.41,0.05,0.81,0.15,1.21
					c0.23,0.94,0.66,1.83,1.16,2.66c0.37,0.63,0.77,1.25,1.21,1.84c1.42,1.93,3.19,3.61,5.24,4.86c1.02,0.63,2.12,1.18,3.27,1.55
					c1.28,0.42,2.42,0.86,3.8,0.6c1.45-0.27,2.87-1.17,3.45-2.56c0.17-0.41,0.26-0.87,0.16-1.31
					C57.21,52.11,55.99,51.58,55.26,51.14z"/>
				<linearGradient id="SVGID_3_" gradientUnits="userSpaceOnUse" x1="28.7811" y1="48.7309" x2="67.2047" y2="48.7309">
					<stop  offset="0" style="stop-color:#BBD532"/>
					<stop  offset="0.1033" style="stop-color:#C6C92E"/>
					<stop  offset="0.3192" style="stop-color:#DFAB26"/>
					<stop  offset="0.5228" style="stop-color:#F6871F"/>
					<stop  offset="0.7089" style="stop-color:#E77360"/>
					<stop  offset="1" style="stop-color:#D14B9B"/>
				</linearGradient>
				<path class="st3" d="M48.18,29.47c-10.49,0-19.02,8.53-19.02,19.02c0,3.21,0.82,6.37,2.39,9.19l-2.76,10.3l10.36-2.77
					c2.78,1.51,5.89,2.31,9.04,2.31c10.49,0,19.02-8.53,19.02-19.02C67.2,38.01,58.67,29.47,48.18,29.47z M48.18,63.92
					c-2.76,0-5.48-0.75-7.88-2.18l-0.65-0.39l-5.78,1.55l1.54-5.75l-0.4-0.66c-1.48-2.42-2.26-5.19-2.26-8
					c0-8.51,6.92-15.43,15.43-15.43c8.51,0,15.43,6.92,15.43,15.43S56.69,63.92,48.18,63.92z"/>
			</g>
		</g>
		<g>
			<linearGradient id="SVGID_4_" gradientUnits="userSpaceOnUse" x1="48.2123" y1="100.5809" x2="48.2123" y2="5.6306">
				<stop  offset="0" style="stop-color:#BBD532"/>
				<stop  offset="0.1033" style="stop-color:#C6C92E"/>
				<stop  offset="0.3192" style="stop-color:#DFAB26"/>
				<stop  offset="0.5228" style="stop-color:#F6871F"/>
				<stop  offset="0.7089" style="stop-color:#E77360"/>
				<stop  offset="1" style="stop-color:#D14B9B"/>
			</linearGradient>
			<path class="st4" d="M55.26,51.14c-0.78-0.47-1.8-0.99-2.72-0.61c-0.71,0.29-1.16,1.4-1.62,1.96c-0.24,0.29-0.52,0.34-0.88,0.19
				c-2.66-1.06-4.69-2.83-6.16-5.28c-0.25-0.38-0.2-0.68,0.1-1.03c0.44-0.52,1-1.11,1.12-1.82c0.12-0.7-0.21-1.52-0.5-2.15
				c-0.37-0.8-0.79-1.94-1.59-2.39c-0.74-0.42-1.71-0.18-2.36,0.35c-1.13,0.92-1.68,2.37-1.66,3.8c0,0.41,0.05,0.81,0.15,1.21
				c0.23,0.94,0.66,1.83,1.16,2.66c0.37,0.63,0.77,1.25,1.21,1.84c1.42,1.93,3.19,3.61,5.24,4.86c1.02,0.63,2.12,1.18,3.27,1.55
				c1.28,0.42,2.42,0.86,3.8,0.6c1.45-0.27,2.87-1.17,3.45-2.56c0.17-0.41,0.26-0.87,0.16-1.31C57.21,52.11,55.99,51.58,55.26,51.14
				z"/>
			<linearGradient id="SVGID_5_" gradientUnits="userSpaceOnUse" x1="47.9929" y1="100.581" x2="47.9929" y2="5.6309">
				<stop  offset="0" style="stop-color:#BBD532"/>
				<stop  offset="0.1033" style="stop-color:#C6C92E"/>
				<stop  offset="0.3192" style="stop-color:#DFAB26"/>
				<stop  offset="0.5228" style="stop-color:#F6871F"/>
				<stop  offset="0.7089" style="stop-color:#E77360"/>
				<stop  offset="1" style="stop-color:#D14B9B"/>
			</linearGradient>
			<path class="st5" d="M48.18,29.47c-10.49,0-19.02,8.53-19.02,19.02c0,3.21,0.82,6.37,2.39,9.19l-2.76,10.3l10.36-2.77
				c2.78,1.51,5.89,2.31,9.04,2.31c10.49,0,19.02-8.53,19.02-19.02C67.2,38.01,58.67,29.47,48.18,29.47z M48.18,63.92
				c-2.76,0-5.48-0.75-7.88-2.18l-0.65-0.39l-5.78,1.55l1.54-5.75l-0.4-0.66c-1.48-2.42-2.26-5.19-2.26-8
				c0-8.51,6.92-15.43,15.43-15.43c8.51,0,15.43,6.92,15.43,15.43S56.69,63.92,48.18,63.92z"/>
		</g>
	</g>
</g>
</svg>
